Coordinates
version=1
nRows=40
nColumns=38
inDegrees=no

Units are S.I. units (second, meters, Newtons, ...)
If the header above contains a line with 'inDegrees', this indicates whether rotational values are in degrees (yes) or radians (no).

endheader
time	pelvis_tilt	pelvis_list	pelvis_rotation	pelvis_tx	pelvis_ty	pelvis_tz	hip_flexion_r	hip_adduction_r	hip_rotation_r	knee_angle_r	ankle_angle_r	subtalar_angle_r	mtp_angle_r	hip_flexion_l	hip_adduction_l	hip_rotation_l	knee_angle_l	ankle_angle_l	subtalar_angle_l	mtp_angle_l	lumbar_extension	lumbar_bending	lumbar_rotation	arm_flex_r	arm_add_r	arm_rot_r	elbow_flex_r	pro_sup_r	wrist_flex_r	wrist_dev_r	arm_flex_l	arm_add_l	arm_rot_l	elbow_flex_l	pro_sup_l	wrist_flex_l	wrist_dev_l
2.22	-0.321209	1.34451	-1.13392	1.0177	-0.271375	0.931192	0.147917	0.0156012	-0.262754	0.446748	-0.262218	0	0	-0.523599	-0.192601	-0.292735	0.41236	-0.27283	0	0	-0.33628	0.166289	-0.26014	-0.208324	-0.286139	-0.0784051	0.825832	0.37513	0	0	-0.0934517	-0.267724	-0.0734381	1.07899	1.51886	0	0
2.23	-0.332519	1.33716	-1.12304	1.01577	-0.283311	0.932782	0.135756	0.0233077	-0.266877	0.460472	-0.262925	0	0	-0.519782	-0.204559	-0.289549	0.452461	-0.309548	0	0	-0.339901	0.171992	-0.25951	-0.211181	-0.28545	-0.078884	0.824532	0.374763	0	0	-0.103087	-0.264527	-0.0747102	1.07465	1.52017	0	0
2.24	-0.348366	1.33044	-1.10873	1.01361	-0.295075	0.934391	0.124136	0.0326691	-0.272063	0.472715	-0.260136	0	0	-0.509458	-0.218349	-0.285584	0.499424	-0.342133	0	0	-0.342837	0.178146	-0.256248	-0.215199	-0.284584	-0.0807345	0.824073	0.374171	0	0	-0.1113	-0.261691	-0.0737958	1.06827	1.52158	0	0
2.25	-0.367097	1.3244	-1.09212	1.01136	-0.306687	0.935974	0.111062	0.0436059	-0.276685	0.478374	-0.25868	0	0	-0.494431	-0.233389	-0.280255	0.551467	-0.374885	0	0	-0.345184	0.184848	-0.251739	-0.220022	-0.283738	-0.0836375	0.825002	0.373971	0	0	-0.118944	-0.259063	-0.0718557	1.06058	1.5237	0	0
2.26	-0.386568	1.31937	-1.07476	1.00907	-0.318208	0.937414	0.0960299	0.0547837	-0.281307	0.476978	-0.25869	0	0	-0.475399	-0.248913	-0.273153	0.606475	-0.407458	0	0	-0.346339	0.191416	-0.246786	-0.225632	-0.282658	-0.0877551	0.82697	0.374272	0	0	-0.126489	-0.256927	-0.068683	1.05209	1.52575	0	0
2.27	-0.402633	1.31495	-1.06161	1.00675	-0.329539	0.938632	0.07989	0.0648013	-0.285362	0.473342	-0.257403	0	0	-0.454188	-0.263544	-0.266757	0.663728	-0.436389	0	0	-0.347614	0.196725	-0.240683	-0.232237	-0.281692	-0.0925722	0.831126	0.374962	0	0	-0.134091	-0.255183	-0.0649527	1.04426	1.52559	0	0
2.28	-0.414492	1.31123	-1.05326	1.00435	-0.340702	0.939595	0.0634394	0.0739005	-0.287991	0.469362	-0.253108	0	0	-0.431289	-0.277174	-0.261857	0.723249	-0.456988	0	0	-0.348758	0.200317	-0.233748	-0.239619	-0.280732	-0.0975282	0.83675	0.376238	0	0	-0.141796	-0.25431	-0.0604349	1.03728	1.52349	0	0
2.29	-0.422472	1.30803	-1.04927	1.00192	-0.351781	0.940387	0.0469188	0.0821103	-0.289258	0.465887	-0.247001	0	0	-0.407244	-0.289399	-0.256351	0.784591	-0.465815	0	0	-0.35001	0.202342	-0.226557	-0.247041	-0.279801	-0.10223	0.843027	0.377336	0	0	-0.150087	-0.253869	-0.0560294	1.03115	1.5206	0	0
2.3	-0.42783	1.30553	-1.04782	0.99959	-0.362681	0.941096	0.0306692	0.0896733	-0.289148	0.461972	-0.239673	0	0	-0.381872	-0.30097	-0.251489	0.846498	-0.468809	0	0	-0.351097	0.203538	-0.218972	-0.254767	-0.278814	-0.107755	0.849955	0.377861	0	0	-0.157424	-0.253899	-0.0502816	1.02401	1.51724	0	0
2.31	-0.43055	1.30472	-1.04806	0.997532	-0.373207	0.941779	0.0161192	0.0955311	-0.288231	0.4579	-0.232383	0	0	-0.353341	-0.311649	-0.247692	0.908214	-0.470768	0	0	-0.351361	0.203517	-0.212164	-0.260943	-0.277533	-0.113281	0.854885	0.378051	0	0	-0.163315	-0.253835	-0.0440955	1.01507	1.51436	0	0
2.32	-0.428973	1.30423	-1.05141	0.995723	-0.38344	0.942669	0.00114527	0.0999585	-0.286902	0.452402	-0.226334	0	0	-0.323943	-0.320045	-0.241342	0.966747	-0.471592	0	0	-0.352164	0.202454	-0.206463	-0.265083	-0.275962	-0.11825	0.857059	0.378268	0	0	-0.168076	-0.253461	-0.0385056	1.00453	1.51295	0	0
2.33	-0.420496	1.3019	-1.06029	0.994057	-0.393528	0.94396	-0.0179783	0.103851	-0.285508	0.443639	-0.221888	0	0	-0.297175	-0.326039	-0.232114	1.01935	-0.460769	0	0	-0.355491	0.200693	-0.202214	-0.267771	-0.273985	-0.122607	0.857591	0.378548	0	0	-0.172327	-0.25298	-0.0343631	0.993274	1.51137	0	0
2.34	-0.406239	1.2974	-1.07321	0.992514	-0.403453	0.945581	-0.0423045	0.108089	-0.282532	0.42976	-0.218903	0	0	-0.273187	-0.33082	-0.222063	1.06614	-0.429962	0	0	-0.361372	0.198707	-0.19948	-0.269781	-0.271365	-0.127241	0.857568	0.379133	0	0	-0.176176	-0.252897	-0.0307055	0.981827	1.50859	0	0
2.35	-0.387587	1.29129	-1.08948	0.991061	-0.41322	0.947396	-0.0709894	0.112688	-0.277262	0.41104	-0.21769	0	0	-0.251354	-0.33442	-0.212363	1.10771	-0.385745	0	0	-0.369345	0.196321	-0.197753	-0.271295	-0.268174	-0.132326	0.857367	0.37993	0	0	-0.180129	-0.253127	-0.0278445	0.970984	1.50556	0	0
2.36	-0.368449	1.28567	-1.10673	0.989548	-0.422899	0.949194	-0.0999249	0.116954	-0.270483	0.391324	-0.216635	0	0	-0.229605	-0.336717	-0.204577	1.14434	-0.347771	0	0	-0.376919	0.192985	-0.196245	-0.2719	-0.264885	-0.136393	0.855862	0.380245	0	0	-0.184637	-0.253282	-0.0264322	0.960251	1.5037	0	0
2.37	-0.350209	1.28093	-1.1246	0.987909	-0.432536	0.950909	-0.127513	0.120453	-0.263064	0.372598	-0.216103	0	0	-0.207975	-0.337488	-0.199049	1.17635	-0.312371	0	0	-0.383448	0.188657	-0.1941	-0.272013	-0.261441	-0.140015	0.853452	0.380717	0	0	-0.189726	-0.253504	-0.0257081	0.94943	1.50292	0	0
2.38	-0.3326	1.27734	-1.14322	0.986249	-0.442087	0.952499	-0.153495	0.123004	-0.255105	0.353885	-0.216377	0	0	-0.186073	-0.335855	-0.194121	1.20281	-0.281524	0	0	-0.388789	0.183476	-0.191491	-0.271748	-0.258415	-0.142891	0.850561	0.381678	0	0	-0.195306	-0.2535	-0.0256107	0.938411	1.50359	0	0
2.39	-0.313236	1.2741	-1.16368	0.984731	-0.451427	0.953976	-0.17781	0.123886	-0.249718	0.337753	-0.216761	0	0	-0.164129	-0.331534	-0.187933	1.22361	-0.257818	0	0	-0.394516	0.177801	-0.189091	-0.271781	-0.255856	-0.145497	0.848976	0.382742	0	0	-0.200903	-0.25344	-0.0259575	0.928194	1.50612	0	0
2.4	-0.293368	1.27149	-1.18573	0.983236	-0.460674	0.95532	-0.200489	0.123418	-0.245566	0.32294	-0.217965	0	0	-0.142004	-0.325129	-0.182862	1.23906	-0.236775	0	0	-0.400042	0.171236	-0.186031	-0.272177	-0.253389	-0.148156	0.848108	0.384029	0	0	-0.20676	-0.253273	-0.0268572	0.918941	1.50719	0	0
2.41	-0.273627	1.26994	-1.20938	0.981707	-0.469864	0.956508	-0.220851	0.121427	-0.24237	0.310341	-0.219091	0	0	-0.12021	-0.317173	-0.180623	1.24876	-0.217592	0	0	-0.404653	0.163675	-0.182093	-0.272229	-0.251298	-0.149954	0.846768	0.38578	0	0	-0.21294	-0.253011	-0.0276211	0.909989	1.5041	0	0
2.42	-0.253017	1.26881	-1.23523	0.980193	-0.47892	0.957611	-0.239863	0.117941	-0.239854	0.299685	-0.219762	0	0	-0.0998413	-0.307894	-0.181151	1.25278	-0.199443	0	0	-0.409212	0.155564	-0.177346	-0.271859	-0.24957	-0.151382	0.845476	0.387537	0	0	-0.218679	-0.252999	-0.0266799	0.900184	1.50088	0	0
2.43	-0.231248	1.26686	-1.26303	0.978718	-0.487829	0.958726	-0.259278	0.113589	-0.23742	0.290152	-0.219966	0	0	-0.0821975	-0.298038	-0.184231	1.25103	-0.18265	0	0	-0.415003	0.147257	-0.171576	-0.271621	-0.247516	-0.15432	0.845331	0.387634	0	0	-0.223379	-0.253406	-0.0244327	0.890096	1.50232	0	0
2.44	-0.209074	1.26356	-1.2913	0.977281	-0.496733	0.959894	-0.280356	0.109105	-0.235351	0.280119	-0.220297	0	0	-0.0678252	-0.288255	-0.18936	1.24307	-0.167192	0	0	-0.422072	0.138992	-0.165316	-0.271758	-0.245572	-0.157551	0.845636	0.387629	0	0	-0.227622	-0.253756	-0.0224195	0.880549	1.50423	0	0
2.45	-0.188298	1.25943	-1.31821	0.975892	-0.505626	0.961023	-0.30262	0.105035	-0.232424	0.268598	-0.221208	0	0	-0.0553724	-0.278522	-0.19566	1.22913	-0.153709	0	0	-0.429814	0.131275	-0.159165	-0.271904	-0.244239	-0.160078	0.846478	0.388572	0	0	-0.232037	-0.25427	-0.0210083	0.873296	1.49883	0	0
2.46	-0.169637	1.25526	-1.3424	0.974652	-0.514353	0.961952	-0.324246	0.101277	-0.229252	0.257368	-0.222318	0	0	-0.0430811	-0.269177	-0.203248	1.2104	-0.14216	0	0	-0.437396	0.124324	-0.153566	-0.271627	-0.243436	-0.162185	0.847601	0.39022	0	0	-0.2364	-0.256139	-0.0167195	0.866751	1.49658	0	0
2.47	-0.153083	1.25132	-1.36439	0.973497	-0.522998	0.962672	-0.344394	0.097474	-0.227342	0.248341	-0.222676	0	0	-0.0317201	-0.259968	-0.211755	1.18649	-0.132894	0	0	-0.444534	0.117727	-0.147932	-0.270917	-0.242981	-0.163948	0.848509	0.391689	0	0	-0.241078	-0.258188	-0.0119763	0.860602	1.49895	0	0
2.48	-0.138116	1.24791	-1.38527	0.972387	-0.531573	0.96318	-0.362647	0.0932234	-0.227522	0.24136	-0.22254	0	0	-0.0215545	-0.250493	-0.221368	1.15689	-0.125292	0	0	-0.451245	0.111368	-0.141639	-0.270182	-0.243112	-0.165293	0.849867	0.393525	0	0	-0.245474	-0.259626	-0.00813931	0.855574	1.49988	0	0
2.49	-0.124438	1.24556	-1.40497	0.971395	-0.540108	0.963428	-0.378509	0.0885219	-0.229436	0.236556	-0.221573	0	0	-0.0118463	-0.240697	-0.231622	1.12184	-0.120358	0	0	-0.456772	0.105226	-0.135398	-0.269044	-0.2439	-0.165877	0.851131	0.395839	0	0	-0.249621	-0.260397	-0.00498521	0.851146	1.49944	0	0
2.5	-0.11239	1.24338	-1.42231	0.970545	-0.548641	0.963493	-0.394167	0.0844628	-0.23097	0.231319	-0.220115	0	0	-0.00310287	-0.231136	-0.241572	1.08203	-0.118636	0	0	-0.461791	0.0998312	-0.129968	-0.267071	-0.244788	-0.165984	0.851776	0.397822	0	0	-0.253793	-0.261674	-0.00156105	0.847395	1.49963	0	0
2.51	-0.102069	1.24047	-1.43678	0.969782	-0.557182	0.963481	-0.411233	0.0816521	-0.230985	0.22438	-0.218714	0	0	0.00369096	-0.22212	-0.251382	1.03763	-0.120036	0	0	-0.46705	0.0953733	-0.125875	-0.264046	-0.245089	-0.165976	0.851448	0.398792	0	0	-0.258089	-0.262995	0.00135408	0.844081	1.49904	0	0
2.52	-0.0934345	1.23662	-1.44916	0.969082	-0.565696	0.963417	-0.429684	0.0796797	-0.229259	0.216407	-0.21745	0	0	0.00789877	-0.213517	-0.262602	0.988936	-0.124488	0	0	-0.47327	0.0915073	-0.122061	-0.260999	-0.245418	-0.165989	0.851711	0.399062	0	0	-0.262445	-0.264172	0.0036191	0.841692	1.4981	0	0
2.53	-0.0869367	1.23286	-1.46015	0.968446	-0.5741	0.963166	-0.447453	0.0775903	-0.227164	0.210373	-0.215215	0	0	0.0104789	-0.204991	-0.276406	0.936706	-0.130882	0	0	-0.479956	0.0879747	-0.117361	-0.258939	-0.246139	-0.166888	0.854375	0.398648	0	0	-0.26663	-0.264845	0.00498381	0.84026	1.49776	0	0
2.54	-0.0824478	1.22874	-1.46952	0.967892	-0.582403	0.962816	-0.465795	0.0758252	-0.223955	0.20316	-0.212995	0	0	0.0106029	-0.196637	-0.292587	0.880733	-0.140701	0	0	-0.487422	0.0850765	-0.111852	-0.257788	-0.246695	-0.1696	0.859204	0.396668	0	0	-0.270152	-0.265042	0.00562604	0.839442	1.49613	0	0
2.55	-0.0807419	1.22574	-1.47493	0.967481	-0.59081	0.96223	-0.483229	0.0752872	-0.221228	0.19488	-0.211893	0	0	0.0110673	-0.187974	-0.306166	0.823539	-0.15165	0	0	-0.493466	0.0836714	-0.10706	-0.256619	-0.247288	-0.17198	0.863777	0.395277	0	0	-0.273549	-0.265639	0.00677829	0.839332	1.48977	0	0
2.56	-0.0800975	1.22433	-1.47807	0.967188	-0.599285	0.961368	-0.49865	0.0752864	-0.219665	0.187585	-0.210425	0	0	0.0122844	-0.17886	-0.317746	0.764773	-0.161335	0	0	-0.497376	0.0830186	-0.103242	-0.254561	-0.248711	-0.172274	0.866975	0.396023	0	0	-0.276492	-0.266495	0.00928417	0.838141	1.4847	0	0
2.57	-0.0802244	1.22424	-1.4797	0.96701	-0.607792	0.960243	-0.512373	0.0754966	-0.21854	0.181299	-0.208362	0	0	0.013737	-0.169492	-0.328508	0.704048	-0.169529	0	0	-0.499688	0.0827294	-0.100129	-0.251825	-0.250594	-0.171448	0.869447	0.398294	0	0	-0.279199	-0.26687	0.0113182	0.836317	1.48119	0	0
2.58	-0.0815287	1.22593	-1.47943	0.966955	-0.616338	0.958817	-0.523599	0.0760877	-0.217718	0.175696	-0.205337	0	0	0.0162736	-0.159842	-0.33743	0.641702	-0.175255	0	0	-0.499991	0.0827161	-0.0979103	-0.248837	-0.252013	-0.170776	0.871131	0.399363	0	0	-0.281913	-0.266331	0.0114739	0.834239	1.47627	0	0
2.59	-0.0849343	1.23169	-1.4763	0.967015	-0.624969	0.956998	-0.523599	0.0768837	-0.216918	0.174303	-0.19977	0	0	0.0227327	-0.149437	-0.341496	0.577065	-0.182745	0	0	-0.495576	0.0829954	-0.0968211	-0.244873	-0.253177	-0.169365	0.870228	0.399646	0	0	-0.283978	-0.265023	0.0108671	0.830033	1.47314	0	0
2.6	-0.0890332	1.23912	-1.47156	0.967148	-0.633694	0.954955	-0.523599	0.077993	-0.216679	0.174282	-0.190984	0	0	0.029336	-0.138235	-0.34102	0.509418	-0.194279	0	0	-0.488942	0.0831344	-0.0974159	-0.240208	-0.254555	-0.165854	0.867955	0.398072	0	0	-0.286405	-0.263216	0.00792978	0.825451	1.47241	0	0
2.61	-0.0935094	1.24695	-1.46577	0.967381	-0.642429	0.952789	-0.523599	0.0793273	-0.216144	0.174819	-0.182634	0	0	0.034498	-0.126605	-0.336182	0.43943	-0.205435	0	0	-0.481988	0.0832342	-0.0989519	-0.235385	-0.256091	-0.161298	0.865471	0.392876	0	0	-0.28903	-0.261198	0.00328107	0.821547	1.47227	0	0
